<?xml version="1.0" standalone="no"?>
<!DOCTYPE svg PUBLIC "-//W3C//DTD SVG 20010904//EN"
 "http://www.w3.org/TR/2001/REC-SVG-20010904/DTD/svg10.dtd">
<svg version="1.0" xmlns="http://www.w3.org/2000/svg"
 width="1472.000000pt" height="832.000000pt" viewBox="0 0 1472.000000 832.000000"
 preserveAspectRatio="xMidYMid meet">

<g transform="translate(0.000000,832.000000) scale(0.100000,-0.100000)"
fill="#000000" stroke="none">
<path d="M0 4160 l0 -4160 7360 0 7360 0 0 4160 0 4160 -7360 0 -7360 0 0
-4160z m7480 1700 c131 -13 228 -28 303 -46 59 -15 214 -21 595 -23 l212 -1
-30 -59 -29 -59 47 -30 c26 -16 85 -51 132 -78 47 -27 168 -100 270 -162 180
-112 351 -208 575 -327 61 -32 112 -60 115 -62 21 -19 -112 -57 -255 -74 -73
-8 -83 -7 -130 15 -27 13 -142 91 -255 173 -197 143 -264 191 -450 318 -145
99 -375 233 -450 264 -40 16 -66 31 -59 34 8 3 -2 3 -21 0 -28 -4 -32 -2 -20
7 12 9 10 11 -12 7 -15 -2 -29 0 -31 6 -4 14 -202 22 -522 20 -384 -2 -700
-25 -960 -69 -113 -19 -425 -95 -530 -130 -307 -101 -640 -272 -1035 -532 -69
-46 -135 -85 -148 -89 -13 -3 -116 -2 -229 3 l-205 9 98 65 c54 36 110 71 123
78 14 7 61 35 105 61 204 123 375 213 611 321 377 173 957 333 1335 370 118
11 708 5 850 -10z m-69 -200 c-19 -5 -50 -6 -68 -3 -19 3 -91 -2 -161 -11 -70
-9 -203 -23 -296 -32 -93 -8 -228 -26 -300 -39 -114 -20 -447 -95 -500 -111
-13 -4 -16 -3 -11 6 8 14 -25 10 -70 -6 -11 -4 -17 -4 -13 0 12 14 233 76 388
110 316 69 526 92 880 93 114 1 172 -2 151 -7z m197 3 c-21 -2 -55 -2 -75 0
-21 2 -4 4 37 4 41 0 58 -2 38 -4z m-57 -149 c107 -8 237 -24 289 -34 57 -11
99 -15 105 -9 40 38 268 -59 520 -222 105 -68 144 -85 243 -110 70 -18 158
-67 168 -93 3 -7 34 -37 69 -66 36 -30 63 -56 60 -58 -2 -3 -25 12 -50 32 -50
42 -61 35 -15 -9 17 -16 30 -32 30 -37 0 -13 -48 2 -94 28 -34 20 -55 24 -126
23 -76 0 -107 -6 -174 -34 -18 -8 -19 -4 -13 65 3 40 10 77 15 82 5 5 46 13
91 17 45 5 85 11 88 15 4 3 0 6 -8 6 -13 0 -164 47 -210 65 -13 5 -15 -3 -11
-52 4 -61 -13 -147 -28 -138 -5 3 -11 18 -15 33 -17 79 -257 267 -472 369
-124 59 -277 91 -588 124 -336 36 -1007 -60 -1467 -210 -134 -44 -172 -49 -55
-8 207 74 574 160 842 197 298 41 516 48 806 24z m962 -157 c31 -26 30 -26
-21 4 -28 18 -58 39 -65 47 -17 22 46 -15 86 -51z m150 -117 c16 -14 43 -43
60 -65 28 -36 -49 31 -153 133 -28 28 48 -28 93 -68z m-2853 10 c-8 -5 -19
-10 -25 -10 -5 0 -3 5 5 10 8 5 20 10 25 10 6 0 3 -5 -5 -10z m-50 -20 c-8 -5
-19 -10 -25 -10 -5 0 -3 5 5 10 8 5 20 10 25 10 6 0 3 -5 -5 -10z m-87 -40
c-29 -17 -53 -34 -54 -38 -1 -8 -5 -31 -10 -51 -6 -23 130 -111 346 -221 l200
-103 390 6 c214 4 543 11 730 16 506 14 1003 21 905 12 -287 -27 -478 -34
-1375 -48 -393 -6 -457 -9 -325 -14 91 -3 -73 -5 -365 -3 -480 3 -613 7 -815
29 -49 6 -62 5 -54 -4 20 -22 148 -59 239 -70 116 -14 497 -38 735 -47 193 -7
219 -9 229 -20 15 -16 -797 17 -866 35 -21 5 -65 12 -98 15 -68 6 -166 30
-209 51 -16 8 -33 12 -38 9 -5 -3 -18 2 -28 11 -13 12 -28 15 -56 11 -23 -4
-32 -3 -21 2 40 17 -562 59 -918 64 -140 2 -198 -1 -260 -15 -44 -9 -165 -33
-270 -52 -184 -35 -287 -56 -539 -110 -65 -14 -121 -24 -123 -21 -2 2 62 20
144 39 199 48 209 51 433 92 506 94 452 88 695 81 121 -4 294 -11 385 -16 657
-39 931 -52 1180 -57 l285 -6 -185 95 c-186 94 -302 164 -352 211 -25 23 -26
29 -17 57 8 21 27 40 63 60 28 17 56 30 61 30 6 0 -14 -14 -42 -30z m-253 16
c0 -3 -4 -8 -10 -11 -5 -3 -10 -1 -10 4 0 6 5 11 10 11 6 0 10 -2 10 -4z m-30
-21 c0 -1 -9 -10 -19 -19 -13 -12 -21 -14 -26 -6 -4 6 -1 9 7 8 7 -2 12 2 11
8 -1 6 5 11 13 11 8 0 14 -1 14 -2z m70 -141 c0 -8 -115 73 -130 92 -8 10 18
-6 58 -35 39 -29 72 -55 72 -57z m70 -50 c0 -3 -13 4 -30 16 -16 12 -30 24
-30 26 0 3 14 -4 30 -16 17 -12 30 -24 30 -26z m81 -51 c13 -16 12 -17 -3 -4
-10 7 -18 15 -18 17 0 8 8 3 21 -13z m4489 -19 c198 -22 500 -70 657 -104 330
-70 553 -140 729 -227 74 -37 246 -159 319 -228 50 -47 20 -28 -82 51 -115 89
-187 132 -280 168 -46 18 -80 36 -76 40 4 4 0 4 -10 0 -9 -3 -17 -2 -17 3 0
10 -106 38 -129 34 -7 -1 -10 2 -6 8 3 7 0 8 -9 5 -9 -3 -16 -2 -16 4 0 10
-107 33 -155 32 -19 0 -25 3 -17 8 8 6 1 8 -20 8 -18 0 -114 13 -213 28 -244
37 -403 45 -1003 52 -282 3 -523 9 -534 13 -11 4 20 5 69 3 82 -4 102 -1 229
36 76 23 168 52 204 67 73 28 102 28 360 -1z m-4430 -20 c0 -2 -9 0 -20 6 -11
6 -20 13 -20 16 0 2 9 0 20 -6 11 -6 20 -13 20 -16z m3520 -74 c41 -28 43 -30
15 -25 -16 4 -36 8 -43 11 -7 2 -10 -1 -7 -6 4 -6 -18 -10 -57 -11 -35 -1
-103 -3 -152 -5 -130 -5 -94 12 53 25 128 12 145 16 136 32 -11 17 10 9 55
-21z m99 -153 c14 -17 46 -119 56 -176 l7 -43 -153 7 c-140 7 -161 10 -234 39
-82 33 -141 50 -207 61 -39 6 -58 27 -58 64 0 15 -8 21 -32 24 -31 4 -31 4 7
6 22 2 164 8 315 15 151 7 278 14 281 14 4 1 12 -4 18 -11z m1481 -11 c246
-36 444 -94 559 -164 77 -47 161 -113 161 -127 0 -6 -27 -40 -60 -74 l-60 -63
-117 7 -117 7 -115 77 c-232 155 -384 202 -646 202 -157 0 -231 -9 -355 -46
-81 -24 -97 -25 -357 -25 l-273 0 -6 28 c-7 32 -47 159 -59 185 -7 18 17 18
661 14 559 -3 688 -7 784 -21z m-2700 -27 c-170 -6 -1550 -13 -1580 -7 -22 4
841 13 1335 14 315 0 376 -1 245 -7z m-1962 -46 c-75 -2 -201 -2 -280 0 -79 1
-17 3 137 3 154 0 218 -2 143 -3z m-1915 -10 c-205 -2 -541 -2 -745 0 -205 1
-38 2 372 2 410 0 577 -1 373 -2z m715 0 c-32 -2 -86 -2 -120 0 -35 2 -9 3 57
3 66 0 94 -1 63 -3z m180 0 c-10 -2 -26 -2 -35 0 -10 3 -2 5 17 5 19 0 27 -2
18 -5z m395 0 c-18 -2 -48 -2 -65 0 -18 2 -4 4 32 4 36 0 50 -2 33 -4z m3470
-111 c82 -36 83 -36 245 -40 89 -2 162 -8 162 -12 0 -5 -68 -7 -152 -3 -160 6
-150 4 -340 77 -31 12 -60 25 -64 28 -13 13 68 -14 149 -50z m-1743 38 c8 -5
11 -10 5 -10 -5 0 -17 5 -25 10 -8 5 -10 10 -5 10 6 0 17 -5 25 -10z m-3825
-15 c83 -3 292 -7 465 -10 173 -3 394 -10 490 -15 96 -5 274 -14 395 -20 653
-31 1055 -59 1585 -110 151 -15 170 -19 170 -35 0 -18 -10 -18 -115 -5 -44 5
-188 16 -320 25 -132 9 -258 18 -280 20 -64 7 -319 16 -455 16 -69 1 -138 5
-155 9 -31 9 -488 62 -502 58 -4 -1 -53 1 -108 5 -55 4 -134 10 -175 13 -41 2
-97 6 -125 8 -27 2 -154 7 -281 11 -231 8 -231 8 -310 -18 -43 -14 -140 -42
-215 -61 -238 -62 -261 -72 -350 -153 -53 -48 -58 -52 -35 -20 38 50 110 102
177 126 29 10 137 42 239 70 102 29 194 56 205 61 37 17 -84 0 -215 -31 -167
-39 -270 -74 -322 -109 -23 -16 -44 -28 -45 -26 -1 1 6 24 16 52 25 67 34 121
21 129 -24 15 -6 24 43 20 28 -2 120 -7 202 -10z m3940 -40 c22 -14 36 -25 30
-25 -5 1 -28 12 -50 25 -22 14 -35 25 -30 25 6 -1 28 -12 50 -25z m85 -51 c0
-2 -9 0 -20 6 -11 6 -20 13 -20 16 0 2 9 0 20 -6 11 -6 20 -13 20 -16z m2469
11 c2 -3 -107 -5 -242 -5 -136 0 -247 3 -247 8 0 7 481 5 489 -3z m783 -18
c111 -29 248 -93 303 -140 l37 -32 -26 -14 c-24 -13 -30 -12 -73 13 -175 101
-307 137 -525 143 -170 6 -245 -5 -379 -53 -37 -13 -75 -21 -85 -18 -13 4 -15
3 -7 -3 9 -6 3 -12 -18 -20 -27 -10 -29 -10 -18 3 11 13 9 14 -15 2 -16 -7
-23 -14 -17 -16 8 -3 6 -9 -6 -18 -25 -19 -41 -17 -17 2 19 15 19 16 -1 10
-17 -5 -16 -3 5 14 14 11 29 20 34 20 5 0 6 3 3 6 -4 4 -13 1 -21 -5 -8 -7
-17 -8 -20 -3 -7 11 126 73 208 97 126 37 197 44 371 41 143 -3 186 -8 267
-29z m-3167 -42 l20 -16 -20 10 c-11 5 -29 17 -40 26 l-20 16 20 -10 c11 -5
29 -17 40 -26z m65 -41 c0 -2 -9 0 -20 6 -11 6 -20 13 -20 16 0 2 9 0 20 -6
11 -6 20 -13 20 -16z m4152 2 c27 -11 238 -202 238 -214 0 -4 -118 -5 -262 -2
-262 5 -263 5 -318 32 -44 22 -69 28 -122 28 -55 0 -72 4 -88 20 -39 39 -27
42 113 35 l133 -7 73 67 73 67 67 -7 c36 -4 78 -12 93 -19z m-4982 -16 c212
-23 482 -61 476 -68 -3 -2 -67 3 -143 12 -76 9 -213 21 -305 27 -178 11 -219
18 -226 37 -5 15 -23 15 198 -8z m965 -64 c32 -23 72 -48 87 -56 25 -14 2 -15
-240 -12 -147 2 -280 7 -297 11 -16 4 91 6 239 3 190 -3 267 -1 262 6 -4 6
-40 32 -81 57 -41 26 -75 49 -75 51 0 7 41 -16 105 -60z m2049 -2 c4 -10 13
-13 28 -9 20 5 21 4 6 -5 -19 -12 -58 2 -58 20 0 16 17 11 24 -6z m-2497 -10
c-3 -3 -12 -4 -19 -1 -8 3 -5 6 6 6 11 1 17 -2 13 -5z m1776 -51 c-13 -2 -33
-2 -45 0 -13 2 -3 4 22 4 25 0 35 -2 23 -4z m144 0 c-20 -2 -52 -2 -70 0 -17
2 0 4 38 4 39 0 53 -2 32 -4z m430 -1 c7 -4 -31 -6 -85 -4 -134 4 -147 9 -27
11 55 0 106 -3 112 -7z m-4894 -92 c54 -17 70 -26 78 -47 10 -28 10 -113 -1
-113 -4 0 -33 10 -66 21 -85 31 -236 31 -315 0 -80 -31 -141 -88 -183 -171
-86 -172 -63 -339 65 -475 90 -95 216 -135 359 -115 40 6 76 13 81 16 5 3 9
-33 9 -80 l0 -86 -129 0 c-153 0 -223 18 -318 80 -197 129 -293 367 -238 585
51 200 197 354 380 402 67 17 193 9 278 -17z m-1598 -78 c-4 -5 -115 51 -115
59 0 3 27 -8 59 -25 33 -17 58 -32 56 -34z m2382 -297 c79 -198 166 -420 194
-494 27 -74 57 -147 65 -164 l16 -30 -76 5 c-42 3 -79 7 -81 10 -3 3 -25 53
-50 113 -24 59 -46 109 -47 110 -10 9 -468 10 -468 1 0 -5 -16 -61 -35 -123
l-36 -113 -69 0 c-39 0 -70 3 -70 6 0 4 12 39 26 78 38 103 185 579 229 739
l38 137 -24 28 c-61 67 -68 63 96 60 l148 -3 144 -360z m1749 344 c93 -18 175
-87 203 -168 16 -49 14 -180 -5 -233 -31 -92 -140 -171 -254 -185 -31 -4 -49
-10 -47 -17 3 -6 54 -103 115 -216 60 -113 109 -205 108 -206 0 0 -32 2 -71 5
l-70 6 -127 254 c-71 139 -128 261 -128 271 0 16 13 18 134 22 117 3 138 6
162 24 49 36 67 70 72 131 6 98 -46 173 -134 193 -47 11 -294 13 -294 3 -4
-83 -21 -393 -29 -498 -5 -77 -13 -202 -16 -277 l-7 -138 -74 0 c-71 0 -74 1
-74 24 0 13 13 171 29 352 50 556 53 597 47 634 l-6 37 208 -4 c114 -2 230 -8
258 -14z m1128 -31 c24 -18 122 -99 217 -180 96 -80 230 -192 299 -248 l125
-102 3 286 2 286 71 0 70 0 -5 -117 c-3 -65 -8 -226 -11 -358 -3 -132 -8 -313
-12 -402 l-6 -163 -68 0 -69 0 0 148 0 147 -87 75 c-48 41 -119 102 -157 134
-39 33 -131 113 -203 179 l-133 118 0 -400 0 -401 -76 0 -76 0 6 183 c3 100 7
335 9 523 l2 341 28 -8 c16 -4 48 -23 71 -41z m-2006 8 c73 -34 133 -95 150
-154 17 -57 15 -170 -5 -227 -29 -87 -132 -170 -224 -182 l-38 -6 38 -46 c32
-38 271 -387 271 -395 0 -3 -132 13 -145 18 -6 2 -58 76 -115 165 -58 90 -135
204 -172 254 -38 51 -68 100 -68 110 0 15 12 17 105 17 117 0 154 11 197 56
76 82 41 250 -59 286 -37 12 -305 19 -316 8 -3 -3 -6 -209 -8 -457 l-4 -453
-77 0 -77 0 4 48 c6 65 30 786 30 900 l0 93 225 -3 c224 -3 225 -3 288 -32z
m1685 19 c15 -6 92 -107 84 -110 -1 0 -119 2 -262 5 l-259 5 -38 50 c-21 28
-38 54 -38 59 0 10 487 2 513 -9z m1897 -4 c0 -10 3 -39 6 -65 l7 -46 -167 0
-167 0 3 -455 3 -455 -72 0 -73 0 0 455 0 455 -112 0 c-62 0 -118 4 -124 8 -6
4 -14 33 -18 65 l-7 57 360 0 c345 0 361 -1 361 -19z m564 -5 c3 -13 63 -151
132 -307 69 -156 153 -347 185 -424 33 -77 78 -172 100 -212 l40 -73 -80 0
c-51 0 -82 4 -88 13 -5 6 -29 58 -53 115 -24 57 -47 105 -50 107 -4 2 -112 5
-241 5 l-233 1 -18 -48 c-9 -26 -27 -81 -38 -120 l-21 -73 -69 0 c-39 0 -70 2
-70 3 0 2 9 30 20 63 68 196 224 750 236 837 6 39 3 45 -20 60 -14 10 -33 31
-41 47 l-16 30 160 0 159 0 6 -24z m724 -414 c2 -240 5 -438 6 -440 2 -1 90
-5 197 -10 l194 -7 44 -65 43 -65 -307 -3 c-170 -1 -311 0 -314 4 -3 3 -7 235
-9 515 l-3 509 73 0 73 0 3 -438z m-7992 343 c45 -13 110 -29 145 -35 96 -17
137 -40 220 -121 73 -71 73 -71 8 -12 -87 79 -124 97 -243 123 -101 22 -211
55 -236 72 -12 7 -10 8 5 3 11 -4 57 -17 101 -30z m4827 -397 c13 -18 31 -44
40 -58 l16 -25 -266 3 c-213 3 -268 1 -274 -10 -5 -7 -9 -82 -9 -165 l0 -153
184 0 c101 0 198 -3 216 -6 19 -4 55 -29 93 -65 33 -32 59 -60 56 -61 -2 -2
-154 -2 -336 0 l-333 3 0 246 c0 239 1 248 23 280 12 18 29 34 37 37 8 2 131
4 272 5 l257 1 24 -32z m495 -785 c25 -55 100 -239 109 -265 4 -14 0 -18 -19
-18 -18 0 -27 8 -37 35 -16 45 -39 57 -103 53 -49 -3 -53 -5 -72 -43 -12 -22
-27 -40 -33 -40 -23 0 -15 35 49 198 58 145 71 156 106 80z m710 38 c10 -5 31
-37 47 -70 16 -34 31 -61 35 -61 3 0 23 30 44 66 37 63 59 84 73 70 4 -4 -15
-52 -43 -107 -45 -92 -49 -106 -46 -160 4 -54 2 -59 -17 -59 -13 0 -21 7 -22
18 -1 50 -13 109 -24 122 -6 8 -15 22 -19 30 -4 8 0 6 8 -4 20 -25 20 -14 1
25 -9 16 -20 27 -25 24 -5 -3 -12 0 -16 6 -4 8 -3 9 4 5 17 -10 15 -1 -8 44
-29 57 -27 70 8 51z m-3630 -27 c12 -8 22 -21 22 -29 0 -21 -22 -30 -32 -12
-12 22 -71 37 -105 28 -51 -13 -76 -103 -49 -174 26 -69 101 -98 155 -61 28
20 52 5 32 -20 -22 -26 -93 -30 -142 -9 -54 24 -65 37 -80 96 -11 37 -10 56 0
99 8 29 19 59 25 67 32 41 123 49 174 15z m405 12 c18 -7 45 -28 60 -45 48
-58 33 -181 -28 -229 -33 -27 -111 -30 -155 -7 -64 33 -88 140 -50 216 36 70
103 95 173 65z m365 -33 c17 -27 41 -69 53 -95 13 -27 26 -48 30 -48 3 0 24
42 47 93 65 147 82 129 82 -92 0 -114 -2 -127 -17 -128 -16 -1 -18 10 -17 123
1 68 -2 124 -5 124 -4 0 -13 -16 -20 -35 -7 -20 -26 -65 -43 -102 l-30 -67
-19 40 c-12 26 -17 31 -14 14 3 -16 -2 -11 -14 15 -11 22 -20 49 -20 60 -1 11
-10 34 -22 50 l-20 30 6 -33 c11 -55 -5 -222 -21 -222 -11 0 -14 18 -14 73 0
39 -2 104 -5 142 -3 53 -2 61 5 35 8 -35 8 -35 7 10 0 25 -6 48 -12 52 -5 4
-1 8 11 8 15 0 31 -15 52 -47z m526 38 c60 -10 86 -38 86 -90 0 -55 -32 -82
-106 -86 l-59 -4 -1 -48 c0 -65 -2 -70 -19 -70 -13 0 -15 22 -15 138 0 75 -3
144 -6 153 -5 13 1 16 32 15 22 0 61 -4 88 -8z m437 -14 c67 -44 89 -148 49
-226 -30 -60 -109 -79 -180 -43 -44 22 -59 52 -61 122 l-2 55 -7 -45 -8 -45 3
54 c1 31 7 57 13 59 7 2 12 10 12 17 0 7 16 27 35 44 44 39 96 42 146 8z m465
-9 c21 -20 27 -36 26 -64 -2 -42 -25 -84 -47 -84 -12 0 -7 -17 20 -70 l35 -70
-26 0 c-20 0 -25 4 -20 16 3 8 2 13 -3 10 -5 -3 -12 1 -15 10 -3 8 -2 12 4 9
5 -3 -2 14 -16 39 -23 42 -27 44 -75 48 l-50 3 2 -65 c1 -36 -1 -64 -4 -62 -4
1 -11 2 -16 2 -5 0 -10 66 -10 147 -1 80 -4 151 -8 156 -3 5 30 8 86 6 83 -4
93 -6 117 -31z m420 -1 c39 -45 30 -112 -19 -139 -12 -7 -49 -15 -81 -18 l-60
-5 3 -56 c2 -42 -1 -58 -12 -62 -8 -3 -18 -3 -21 0 -3 4 -6 76 -6 161 l0 154
86 -3 c79 -4 87 -6 110 -32z m655 -14 c18 -27 55 -77 83 -111 l51 -64 6 29 c4
15 7 65 8 111 1 75 3 82 21 82 19 0 20 -7 20 -154 0 -94 -4 -157 -10 -161 -6
-4 -23 7 -38 23 -77 83 -103 114 -90 106 13 -7 -6 17 -50 66 l-24 25 7 -106
c4 -61 3 -109 -2 -112 -24 -15 -31 15 -35 161 -4 172 1 182 53 105z m-5439
-44 c-4 -4 -23 -9 -42 -12 -19 -2 328 -4 772 -3 443 1 804 3 802 6 -3 2 -339
7 -747 10 l-742 6 852 2 c571 1 854 -2 858 -9 4 -5 1 -16 -5 -25 -19 -22
-2143 -20 -2177 2 -13 8 -23 19 -23 24 0 5 98 8 230 7 126 0 227 -4 222 -8z
m8238 3 c0 -4 -7 -18 -17 -31 l-16 -24 -311 6 c-171 4 -586 7 -922 7 l-610 0
-34 25 -34 25 972 0 c535 0 972 -3 972 -8z m-2863 -114 c-3 -8 -6 -5 -6 6 -1
11 2 17 5 13 3 -3 4 -12 1 -19z"/>
<path d="M6093 5483 c9 -2 23 -2 30 0 6 3 -1 5 -18 5 -16 0 -22 -2 -12 -5z"/>
<path d="M6137 4753 c18 -2 50 -2 70 0 21 2 7 4 -32 4 -38 0 -55 -2 -38 -4z"/>
<path d="M5208 4373 c7 -3 16 -2 19 1 4 3 -2 6 -13 5 -11 0 -14 -3 -6 -6z"/>
<path d="M5206 3853 c-75 -273 -124 -458 -121 -461 1 -1 87 -1 192 0 l190 3
-111 278 c-61 152 -114 277 -117 277 -4 0 -19 -44 -33 -97z"/>
<path d="M10380 3899 c-7 -23 -27 -110 -46 -193 -19 -83 -44 -185 -54 -228
-11 -42 -20 -79 -20 -82 0 -3 86 -6 190 -6 105 0 190 2 190 4 0 2 -23 53 -51
112 -66 141 -179 408 -179 423 0 27 -20 7 -30 -30z"/>
<path d="M8491 2705 c-12 -37 -21 -70 -21 -74 0 -3 22 -4 50 -3 l49 4 -25 66
c-13 36 -26 68 -29 70 -2 2 -13 -26 -24 -63z"/>
<path d="M5952 2775 c-80 -35 -82 -189 -2 -230 120 -62 205 145 91 222 -39 27
-45 27 -89 8z"/>
<path d="M6857 2773 c-2 -5 -3 -30 -3 -58 l1 -50 47 1 c25 0 53 6 62 13 24 20
20 67 -6 85 -23 16 -94 22 -101 9z"/>
<path d="M7234 2773 c2 -3 -2 -20 -10 -38 -19 -45 -18 -99 2 -141 20 -43 44
-56 91 -52 53 4 75 40 77 121 0 37 -3 63 -8 59 -5 -3 -7 2 -3 11 10 26 -22 42
-90 43 -35 1 -61 -1 -59 -3z m137 -20 c13 -16 12 -17 -3 -4 -10 7 -18 15 -18
17 0 8 8 3 21 -13z"/>
<path d="M7722 2783 l-53 -4 3 -52 3 -52 57 -3 c47 -2 61 1 78 18 11 11 20 29
20 41 0 26 -26 53 -41 43 -8 -4 -9 -3 -5 4 4 7 4 11 -1 10 -4 -1 -32 -3 -61
-5z"/>
<path d="M8106 2764 c-3 -9 -6 -31 -6 -50 0 -28 5 -36 27 -45 57 -21 121 17
109 66 -11 42 -116 65 -130 29z"/>
</g>
</svg>
